<svg xmlns="http://www.w3.org/2000/svg" viewBox="0 0 1052 1052">
  <defs/>
  <path fill="#eed94e" d="M2.3040357 526.8479816v-526h1052v1052h-1052z"/>
  <path fill="#32332f" d="M408.5421657 968.7890716c-56.17257-4.97063-99.70792-32.87191-125.28788-80.2955-2.28113-4.22905-3.92128-8.27869-3.6448-8.9992.54856-1.42953 74.57685-46.54134 77.72519-47.36465 1.41704-.37057 2.40626.35513 3.7016 2.71551.97227 1.77168 4.80097 7.86568 8.50822 13.54223 11.25665 17.23619 22.50466 26.69822 36.69104 30.86514 6.44026 1.89168 25.26772 2.16376 33.26928.48079 17.60845-3.70359 28.5536-15.45495 33.42348-35.88541 1.67049-7.00812 1.82341-19.04274 2.33174-183.5l.544-176h97v181c0 171.36513-.098 181.55509-1.8415 191.42795-8.74123 49.49945-34.31713 83.40754-75.77754 100.46457-23.02359 9.47203-57.77059 14.10343-86.64283 11.54857zm384.76187.44733c-11.31495-.76881-25.82356-2.59486-35.79111-4.50466-24.98819-4.78779-55.48989-17.6156-75.20889-31.62989-11.63264-8.26731-31.50003-27.93201-39.20893-38.80891-7.46048-10.52638-14.79107-22.76679-14.79107-24.69771 0-.96448 14.47989-9.90912 39.07821-24.13974 21.49302-12.43413 39.41187-22.60751 39.81966-22.60751.4078 0 3.4101 3.92995 6.67179 8.73322 12.61389 18.57565 31.51398 35.13611 48.20734 42.23977 13.88506 5.90862 22.75661 7.47782 42.223 7.46842 20.36364-.01 26.7606-1.22948 39.98484-7.62345 10.31696-4.98829 19.32574-13.48677 23.34468-22.0223 5.33436-11.32928 5.22962-26.72974-.26159-38.46419-7.67927-16.41023-23.39088-26.43757-78.06793-49.82391-40.01865-17.11669-57.89551-26.61052-76.91069-40.84485-30.5599-22.87643-48.16894-51.81306-53.53922-87.98006-1.96167-13.21115-1.98785-36.43396-.0545-48.35427 7.49342-46.20211 38.83927-82.53716 85.09311-98.63706 33.88052-11.79304 78.10908-12.40601 113.91132-1.57872 22.16515 6.70317 41.85902 19.0204 58.46295 36.56474 11.24549 11.88241 25.67541 32.84856 23.99856 34.86903-1.13687 1.36985-71.84167 47.08668-74.25657 48.01336-.83358.31987-3.2458-2.43666-6.48703-7.41298-13.64761-20.95336-28.4498-30.78578-50.03954-33.23898-13.31371-1.5128-25.89293.80471-35.76249 6.58866-6.26647 3.6724-13.94647 12.65145-16.4709 19.25691-4.28561 11.21383-3.55957 27.1535 1.71053 37.55355 7.38801 14.57953 21.02611 23.17994 70.84449 44.67568 58.5659 25.27014 87.74149 43.21623 108.95261 67.01743 14.70264 16.49797 24.48564 36.76174 29.20836 60.5 1.37968 6.93481 1.79611 13.93352 1.81479 30.5.0214 18.9443-.25407 22.74813-2.31706 32-4.14608 18.59388-12.20021 36.34786-22.6977 50.03325-6.05436 7.89296-20.79981 21.61542-29.51436 27.46675-20.95319 14.06889-49.2469 23.89464-78.94664 27.41636-9.79139 1.16104-34.91779 2.02121-43 1.47206z"/>
</svg>