<svg xmlns="http://www.w3.org/2000/svg" id="Layer_2" version="1.1" viewBox="0 0 3388.2455 3011.7797">
  <defs/>
  <circle id="circle186" cx="1694.1729" cy="1501.5149" r="302.60001" fill="#00d8ff"/>
  <path id="path188" fill="none" stroke="#00d8ff" stroke-miterlimit="10" stroke-width="144.74560547" d="M1694.1728 886.31497c406.2 0 783.6 58.3 1068.1 156.20003 342.8 118 553.6 296.9 553.6 458.9 0 168.8-223.4 358.9-591.5 480.8-278.3 92.2-644.6 140.4-1030.2 140.4-395.4 0-769.7-45.2-1051.2-141.4-356.1-121.7-570.599997-314.2-570.599997-479.8 0-160.7 201.299997-338.2 539.299997-456 285.6-99.50003 672.3-159.10003 1082.5-159.10003z" class="st2"/>
  <path id="path190" fill="none" stroke="#00d8ff" stroke-miterlimit="10" stroke-width="144.74560547" d="M1158.6728 1195.715c202.9-351.90003 442-649.70003 669-847.20003 273.5-238 533.8-331.2 674.1-250.3 146.2 84.3 199.3 372.8 121 752.7-59.2 287.20003-200.4 628.50003-393.1 962.60003-197.5 342.5-423.7 644.2-647.6 840-283.3 247.7-557.3 337.3-700.7 254.6-139.2-80.3-192.4-343.3-125.7-695 56.4-297.4 198-662.1 403-1017.4z" class="st2"/>
  <path id="path192" fill="none" stroke="#00d8ff" stroke-miterlimit="10" stroke-width="144.74560547" d="M1159.1728 1814.215c-203.5-351.6-342.1-707.4-399.9-1002.70003-69.6-355.8-20.4-627.9 119.8-709 146.1-84.6 422.5 13.5 712.5 271 219.3 194.7 444.4 487.5 637.6 821.30003 198.1 342.2 346.6 688.8 404.3 980.5 73.1 369.2 13.9 651.3-129.4 734.2-139.1 80.5-393.5-4.7-664.9-238.2-229.2-197.3-474.5-502.1-680-857.1z" class="st2"/>
</svg>