<svg xmlns="http://www.w3.org/2000/svg" viewBox="0 0 730.35999 547.46667">
  <defs/>
  <path fill="#cd4a9c" d="M516.41732042 413.70800668c-2.31733327-1.6493333-1.93199995-6.97999983 5.6893332-23.58266608 2.99199992-6.5186665 9.81866642-17.4933329 21.68666612-27.98133263 1.37466663 4.31333322 2.21333328 8.44933312 2.18933328 12.29999969-.15333333 25.68799936-18.48133287 35.28133245-29.5653326 39.26399902zm-97.5573309 22.23839944c-3.10666658 1.62546663-5.9546665 2.64679994-7.27866648 1.85879995-.97066664-.57973331 1.2813333-2.71973326 1.2813333-2.71973326s15.84133294-17.0401329 22.07999945-24.80013271c3.62933325-4.5119999 7.83733314-9.86799976 12.42266636-15.85866627.03733333.59866665.05733333 1.19199997.05733333 1.77866662-.04666666 20.41599949-19.7679995 34.19986581-28.56266595 39.74106567zM292.22265937 375.5226743c-7.32799982 17.86533289-22.66533277 63.57053174-31.9999992 61.12106514-8.01333313-2.10253328-12.89333301-36.84639908-1.59999996-71.03973156 5.68399986-17.21199957 17.82666622-37.77866572 24.95999938-45.76133219 11.48399971-12.84533301 24.1279994-17.04666624 27.19999932-11.83866637 3.9159999 6.63599983-13.96533299 56.3199986-18.55999954 67.51866498zM138.9426632 479.7254717c-21.03959947 22.95319942-50.43479874 31.6275992-63.03959842 24.32146605-13.610933-7.89226647-8.22026646-41.68439896 17.59959956-66.04173168 15.73746627-14.84373296 36.05306576-28.51586595 49.53066543-36.93719908 3.06666659-1.84533328 7.57333314-4.55599988 13.049333-7.83733313.90799998-.51733332 1.41999997-.80399998 1.41999997-.80399998l-.02-.03466667c1.0573333-.63199998 2.13999995-1.2813333 3.25866658-1.94933328 9.39466644 34.66933246.28533333 65.1917317-21.79866612 89.28279776zm489.6133211-165.06412921c-25.52666603.13466666-47.63599881 6.2626665-66.16933168 15.39733295-6.7786665-13.52799967-13.63866633-25.4293327-14.7906663-34.27866581-1.3453333-10.33066641-2.90399993-16.49333293-1.27999997-28.79999928 1.6253333-12.30666636 8.74533312-29.7333326 8.64133312-31.0386659-.104-1.3053333-1.5973333-7.57466647-16.3199996-7.68133314-14.72399962-.10533333-27.31866598 2.83199993-28.79999927 6.71999984-1.48266663 3.8879999-4.31733323 12.63733301-6.08133318 21.75999945-2.5786666 13.35066633-29.39599927 60.96399848-44.62266556 85.87333119-4.97999987-9.7213331-9.21466643-18.29333288-10.09733308-25.07199938-1.34399996-10.3306664-2.90399992-16.49333292-1.27999996-28.8013326 1.62533329-12.30533303 8.74533311-29.73466593 8.64133311-31.03999923-.104-1.3053333-1.59599996-7.57333315-16.31999959-7.67999981-14.72399963-.10533333-27.31866598 2.83199993-28.79999928 6.71999983-1.48266663 3.8879999-3.06533326 12.97199968-6.08133318 21.75999946-3.01599992 8.78933311-38.66399903 88.21466446-47.9999988 108.80133061-4.75733321 10.48933307-8.89733311 18.91599953-11.8199997 24.67199938-.008-.01466666-.01866667-.032-.01866667-.032s-.18.38266666-.49066666 1.02933331c-2.50133327 4.89866655-3.99066656 7.60906648-3.99066656 7.60906648s.016.03746666.044.10146666c-1.98399995 3.59746658-4.11066657 6.93853316-5.16399987 6.93853316-.73599999 0-2.20933328-9.57599976.32133332-22.71973276 5.30399987-27.55199931 18.04666622-70.51999824 17.91999955-71.9999982-.06666666-.75866665 2.36799994-8.24533313-8.32133312-12.1599997-10.3906664-3.80266657-14.09066632 2.53999994-15.0386663 2.55999994-.91866664.02-1.60133329 2.24133327-1.60133329 2.24133327s11.57599971-48.31999879-22.07999944-48.31999879c-21.04133281 0-50.19733208 23.01733276-64.55999839 43.88133224-9.06399977 4.94399988-28.45999929 15.53199961-49.03866544 26.838666-7.9039998 4.34133322-15.96933293 8.77999978-23.61733274 12.993333-.52-.57599998-1.03866664-1.1533333-1.5733333-1.72399995-40.80986564-43.53999892-116.2515971-74.33599815-113.04999717-132.87066335C56.28026526 205.0600119 63.67706507 149.0280133 200.07732833 81.060015c111.73333054-55.67733194 201.1813283-40.35599899 216.63999459-6.39999984 22.08266611 48.5119988-47.80533214 138.67332987-163.84132924 151.67999621-44.21066556 4.95599988-67.48933165-12.17733303-73.27999817-18.55999953-6.09466651-6.71733317-7.00399982-7.01999983-9.27999977-5.75999986-3.70666657 2.05466661-1.3573333 7.98533313 0 11.51999971 3.46533325 9.0173331 17.6813329 25.00666604 41.91999895 32.95999918 21.32266614 6.99733316 73.2293315 10.84133306 135.9999966-13.43999967 70.30666491-27.19466598 125.2053302-102.84533076 109.07999728-166.07999584C440.9173223 2.66668362 334.28132497-18.47598252 233.3573275 17.38001659c-60.06533183 21.33866613-125.0885302 54.8306653-171.84012904 98.55999753-55.5890786 51.9959987-64.45365172 97.25066424-60.80105314 116.1599971 12.97865434 67.18799832 105.58545202 110.94133056 142.66918443 143.36799641-1.83066662 1.00933331-3.54666658 1.95733329-5.10799987 2.8186666-18.59239954 9.1973331-89.18359777 46.13986551-106.84093067 85.17319787-20.02910616 44.27613223 3.1886666 76.04273143 18.55999954 80.31982466 47.6243988 13.25207967 96.49559759-10.5838264 122.75959693-49.75835876 26.25866601-39.16559902 23.05199942-90.16266441 10.99999973-113.4413305-.14933333-.28933332-.31466666-.57199998-.468-.85866664 4.79999989-2.84133326 9.69599977-5.73066652 14.54799964-8.57999979 9.46266643-5.55599986 18.7506662-10.73999973 26.81199933-15.12666628-4.50933322 12.35866635-7.81333313 27.17199932-9.53199976 48.56533212-2.01866661 25.13359937 8.28133313 57.61999855 21.75999946 70.40119824 5.93466652 5.62666652 13.07466634 5.75893318 17.59999956 5.75893318 15.6839996 0 22.84133276-13.04799967 30.71999923-28.48026595 9.6653331-18.92653286 18.23999954-40.95986564 18.23999954-40.95986564s-10.7626664 59.51973184 18.56133287 59.51973184c10.68399974 0 21.43199947-13.85466632 26.21866601-20.91866614.01333334.0776.02.11866666.02.11866666s.27866666-.45986665.82266665-1.38226663c1.1093333-1.69626662 1.73733329-2.77599993 1.73733329-2.77599993s.02133333-.112.056-.3068c4.29466656-7.45733314 13.81999965-24.45879938 28.10533263-52.49466535 18.45599954-36.22266576 36.15866576-81.59999796 36.15866576-81.59999796s1.64666663 11.0946664 7.03999983 29.43999927c3.17333325 10.7946664 9.91466641 22.7266661 15.23333295 34.16933248-4.28133323 5.93999985-6.91333316 9.35199976-6.91333316 9.35199976s.02533333.06266667.072.17733333c-3.42133325 4.54133322-7.25733316 9.44266643-11.27066639 14.22133298-14.5666663 17.3493329-31.91733253 37.16119907-34.24133248 42.87999893-2.73599993 6.7374665-2.08933328 11.6931997 3.19999992 15.68026627 3.8639999 2.9118666 10.7426664 3.36346658 17.91999956 2.87959993 13.09066634-.87959998 22.30133277-4.12653323 26.84533266-6.10413318 7.08399982-2.50519994 15.33333295-6.44533317 23.07599942-12.1359997 14.28933298-10.50519973 22.90799943-25.5333327 22.07999945-45.4397322-.45866666-10.97066639-3.95733323-21.84399945-8.38266646-32.10933253 1.2973333-1.86399995 2.59733327-3.74533323 3.90133324-5.65066652 22.5266661-32.93199918 39.999999-69.11999827 39.999999-69.11999827s1.64666662 11.09333305 7.04133316 29.43999926c2.72933326 9.28666644 8.11466646 19.41599952 12.957333 29.35199927-21.1813328 17.21066623-34.31733247 37.20799907-38.87866569 50.32799874-8.43333312 24.2627994-1.82799995 35.25706578 10.56133307 37.75973239 5.61199986 1.13479997 13.537333-1.43706663 19.49999951-3.96093324 7.41866648-2.45999993 16.33333293-6.55733316 24.65999939-12.67759968 14.28933297-10.50519974 28.0279993-25.21586603 27.19999932-45.12119887-.37866666-9.06266644-2.83599993-18.05733288-6.17066652-26.698666 17.95466622-7.47866648 41.2013323-11.63733304 70.8106649-8.1799998 63.51999841 7.41733315 75.98133143 47.0786655 73.59999816 63.67866508-2.3826666 16.60133292-15.70666627 25.72533269-20.16133283 28.48159929-4.45333322 2.75413326-5.81333319 3.7103999-5.43866653 5.75986652.54133332 2.9786666 2.60133327 2.86399993 6.3986665 2.22399994 5.2293332-.88279997 33.35599917-13.50266632 34.55999914-44.14413223 1.5293333-38.90133236-35.74133244-81.63199795-101.75999745-81.27999796"/>
</svg>