<svg width="1440" height="900" xmlns="http://www.w3.org/2000/svg"><path d="M636,476L555,201L419,369Z" fill="rgb(156,200,225)" stroke="rgb(156,200,225)" stroke-width="1.51"></path><path d="M555,201L344,242L419,369Z" fill="rgb(182,212,233)" stroke="rgb(182,212,233)" stroke-width="1.51"></path><path d="M636,476L865,181L555,201Z" fill="rgb(149,194,224)" stroke="rgb(149,194,224)" stroke-width="1.51"></path><path d="M555,201L323,-87L344,242Z" fill="rgb(205,224,241)" stroke="rgb(205,224,241)" stroke-width="1.51"></path><path d="M865,181L603,3L555,201Z" fill="rgb(172,207,232)" stroke="rgb(172,207,232)" stroke-width="1.51"></path><path d="M636,476L879,507L865,181Z" fill="rgb(115,175,214)" stroke="rgb(115,175,214)" stroke-width="1.51"></path><path d="M419,369L412,674L636,476Z" fill="rgb(132,183,218)" stroke="rgb(132,183,218)" stroke-width="1.51"></path><path d="M636,476L822,637L879,507Z" fill="rgb(85,158,205)" stroke="rgb(85,158,205)" stroke-width="1.51"></path><path d="M99,433L412,674L419,369Z" fill="rgb(153,193,225)" stroke="rgb(153,193,225)" stroke-width="1.51"></path><path d="M665,750L822,637L636,476Z" fill="rgb(84,152,202)" stroke="rgb(84,152,202)" stroke-width="1.51"></path><path d="M412,674L665,750L636,476Z" fill="rgb(105,160,205)" stroke="rgb(105,160,205)" stroke-width="1.51"></path><path d="M865,181L860,21L603,3Z" fill="rgb(168,202,230)" stroke="rgb(168,202,230)" stroke-width="1.51"></path><path d="M1108,195L860,21L865,181Z" fill="rgb(146,184,220)" stroke="rgb(146,184,220)" stroke-width="1.51"></path><path d="M879,507L1000,451L865,181Z" fill="rgb(105,167,209)" stroke="rgb(105,167,209)" stroke-width="1.51"></path><path d="M1052,700L1000,451L879,507Z" fill="rgb(62,140,195)" stroke="rgb(62,140,195)" stroke-width="1.51"></path><path d="M344,242L99,433L419,369Z" fill="rgb(181,212,233)" stroke="rgb(181,212,233)" stroke-width="1.51"></path><path d="M76,297L99,433L344,242Z" fill="rgb(193,220,237)" stroke="rgb(193,220,237)" stroke-width="1.51"></path><path d="M154,-44L76,297L344,242Z" fill="rgb(216,231,245)" stroke="rgb(216,231,245)" stroke-width="1.51"></path><path d="M603,3L323,-87L555,201Z" fill="rgb(204,225,240)" stroke="rgb(204,225,240)" stroke-width="1.51"></path><path d="M519,-293L323,-87L603,3Z" fill="rgb(209,229,242)" stroke="rgb(209,229,242)" stroke-width="1.51"></path><path d="M412,674L596,942L665,750Z" fill="rgb(95,137,189)" stroke="rgb(95,137,189)" stroke-width="1.51"></path><path d="M99,433L189,763L412,674Z" fill="rgb(142,177,217)" stroke="rgb(142,177,217)" stroke-width="1.51"></path><path d="M1000,451L1108,195L865,181Z" fill="rgb(123,169,211)" stroke="rgb(123,169,211)" stroke-width="1.51"></path><path d="M323,-87L154,-44L344,242Z" fill="rgb(225,236,248)" stroke="rgb(225,236,248)" stroke-width="1.51"></path><path d="M904,967L1052,700L822,637Z" fill="rgb(43,113,178)" stroke="rgb(43,113,178)" stroke-width="1.51"></path><path d="M822,637L1052,700L879,507Z" fill="rgb(58,137,193)" stroke="rgb(58,137,193)" stroke-width="1.51"></path><path d="M403,987L596,942L412,674Z" fill="rgb(101,129,175)" stroke="rgb(101,129,175)" stroke-width="1.51"></path><path d="M904,967L822,637L665,750Z" fill="rgb(60,121,182)" stroke="rgb(60,121,182)" stroke-width="1.51"></path><path d="M1000,451L1260,407L1108,195Z" fill="rgb(100,150,200)" stroke="rgb(100,150,200)" stroke-width="1.51"></path><path d="M860,21L782,-247L603,3Z" fill="rgb(178,210,233)" stroke="rgb(178,210,233)" stroke-width="1.51"></path><path d="M323,-87L81,-244L154,-44Z" fill="rgb(234,242,251)" stroke="rgb(234,242,251)" stroke-width="1.51"></path><path d="M1129,-255L782,-247L860,21Z" fill="rgb(163,195,226)" stroke="rgb(163,195,226)" stroke-width="1.51"></path><path d="M782,-247L519,-293L603,3Z" fill="rgb(191,219,237)" stroke="rgb(191,219,237)" stroke-width="1.51"></path><path d="M1108,195L1129,26L860,21Z" fill="rgb(147,179,218)" stroke="rgb(147,179,218)" stroke-width="1.51"></path><path d="M1315,291L1129,26L1108,195Z" fill="rgb(129,157,204)" stroke="rgb(129,157,204)" stroke-width="1.51"></path><path d="M189,763L403,987L412,674Z" fill="rgb(120,144,193)" stroke="rgb(120,144,193)" stroke-width="1.51"></path><path d="M99,433L-71,661L189,763Z" fill="rgb(154,185,221)" stroke="rgb(154,185,221)" stroke-width="1.51"></path><path d="M189,763L185,940L403,987Z" fill="rgb(118,132,174)" stroke="rgb(118,132,174)" stroke-width="1.51"></path><path d="M76,297L-80,495L99,433Z" fill="rgb(187,216,236)" stroke="rgb(187,216,236)" stroke-width="1.51"></path><path d="M-153,183L-80,495L76,297Z" fill="rgb(206,227,241)" stroke="rgb(206,227,241)" stroke-width="1.51"></path><path d="M519,-293L371,-301L323,-87Z" fill="rgb(218,233,246)" stroke="rgb(218,233,246)" stroke-width="1.51"></path><path d="M1052,700L1260,407L1000,451Z" fill="rgb(61,133,191)" stroke="rgb(61,133,191)" stroke-width="1.51"></path><path d="M-152,904L185,940L189,763Z" fill="rgb(133,144,185)" stroke="rgb(133,144,185)" stroke-width="1.51"></path><path d="M1052,700L1309,758L1260,407Z" fill="rgb(37,109,176)" stroke="rgb(37,109,176)" stroke-width="1.51"></path><path d="M596,942L904,967L665,750Z" fill="rgb(64,110,162)" stroke="rgb(64,110,162)" stroke-width="1.51"></path><path d="M653,1153L904,967L596,942Z" fill="rgb(64,108,159)" stroke="rgb(64,108,159)" stroke-width="1.51"></path><path d="M-80,495L-71,661L99,433Z" fill="rgb(169,201,229)" stroke="rgb(169,201,229)" stroke-width="1.51"></path><path d="M-164,-44L-153,183L154,-44Z" fill="rgb(244,248,254)" stroke="rgb(244,248,254)" stroke-width="1.51"></path><path d="M154,-44L-153,183L76,297Z" fill="rgb(229,239,250)" stroke="rgb(229,239,250)" stroke-width="1.51"></path><path d="M-417,671L-152,904L-71,661Z" fill="rgb(149,168,210)" stroke="rgb(149,168,210)" stroke-width="1.51"></path><path d="M1260,407L1315,291L1108,195Z" fill="rgb(107,145,195)" stroke="rgb(107,145,195)" stroke-width="1.51"></path><path d="M371,-301L81,-244L323,-87Z" fill="rgb(230,239,250)" stroke="rgb(230,239,250)" stroke-width="1.51"></path><path d="M904,967L1101,912L1052,700Z" fill="rgb(30,91,155)" stroke="rgb(30,91,155)" stroke-width="1.51"></path><path d="M1260,407L1474,530L1315,291Z" fill="rgb(77,121,174)" stroke="rgb(77,121,174)" stroke-width="1.51"></path><path d="M403,987L381,1105L596,942Z" fill="rgb(99,124,167)" stroke="rgb(99,124,167)" stroke-width="1.51"></path><path d="M185,940L381,1105L403,987Z" fill="rgb(113,129,172)" stroke="rgb(113,129,172)" stroke-width="1.51"></path><path d="M381,1105L653,1153L596,942Z" fill="rgb(90,120,165)" stroke="rgb(90,120,165)" stroke-width="1.51"></path><path d="M904,967L1098,1190L1101,912Z" fill="rgb(27,83,145)" stroke="rgb(27,83,145)" stroke-width="1.51"></path><path d="M1129,26L1129,-255L860,21Z" fill="rgb(156,183,220)" stroke="rgb(156,183,220)" stroke-width="1.51"></path><path d="M1315,291L1250,-88L1129,26Z" fill="rgb(138,159,205)" stroke="rgb(138,159,205)" stroke-width="1.51"></path><path d="M1250,-88L1129,-255L1129,26Z" fill="rgb(150,170,212)" stroke="rgb(150,170,212)" stroke-width="1.51"></path><path d="M782,-247L1398,-323L519,-293Z" fill="rgb(164,197,227)" stroke="rgb(164,197,227)" stroke-width="1.51"></path><path d="M-48,-228L-164,-44L154,-44Z" fill="rgb(247,251,255)" stroke="rgb(247,251,255)" stroke-width="1.51"></path><path d="M81,-244L-48,-228L154,-44Z" fill="rgb(243,248,254)" stroke="rgb(243,248,254)" stroke-width="1.51"></path><path d="M-338,-232L-48,-228L81,-244Z" fill="rgb(247,251,255)" stroke="rgb(247,251,255)" stroke-width="1.51"></path><path d="M1101,912L1309,758L1052,700Z" fill="rgb(18,90,163)" stroke="rgb(18,90,163)" stroke-width="1.51"></path><path d="M653,1153L772,1209L904,967Z" fill="rgb(56,104,157)" stroke="rgb(56,104,157)" stroke-width="1.51"></path><path d="M1101,912L1331,865L1309,758Z" fill="rgb(10,73,144)" stroke="rgb(10,73,144)" stroke-width="1.51"></path><path d="M671,1362L772,1209L653,1153Z" fill="rgb(67,109,160)" stroke="rgb(67,109,160)" stroke-width="1.51"></path><path d="M-434,413L-80,495L-153,183Z" fill="rgb(198,223,238)" stroke="rgb(198,223,238)" stroke-width="1.51"></path><path d="M-417,671L-71,661L-80,495Z" fill="rgb(160,190,223)" stroke="rgb(160,190,223)" stroke-width="1.51"></path><path d="M-71,661L-152,904L189,763Z" fill="rgb(146,163,207)" stroke="rgb(146,163,207)" stroke-width="1.51"></path><path d="M185,940L100,1138L381,1105Z" fill="rgb(119,133,174)" stroke="rgb(119,133,174)" stroke-width="1.51"></path><path d="M381,1105L449,1345L653,1153Z" fill="rgb(95,122,166)" stroke="rgb(95,122,166)" stroke-width="1.51"></path><path d="M-59,1129L100,1138L185,940Z" fill="rgb(130,139,178)" stroke="rgb(130,139,178)" stroke-width="1.51"></path><path d="M1257,1120L1331,865L1101,912Z" fill="rgb(11,67,133)" stroke="rgb(11,67,133)" stroke-width="1.51"></path><path d="M1309,758L1474,530L1260,407Z" fill="rgb(42,104,165)" stroke="rgb(42,104,165)" stroke-width="1.51"></path><path d="M1315,291L1502,261L1250,-88Z" fill="rgb(123,141,186)" stroke="rgb(123,141,186)" stroke-width="1.51"></path><path d="M1613,668L1474,530L1309,758Z" fill="rgb(26,83,145)" stroke="rgb(26,83,145)" stroke-width="1.51"></path><path d="M1474,530L1502,261L1315,291Z" fill="rgb(85,119,165)" stroke="rgb(85,119,165)" stroke-width="1.51"></path><path d="M-360,-101L-429,294L-153,183Z" fill="rgb(233,242,251)" stroke="rgb(233,242,251)" stroke-width="1.51"></path><path d="M-360,-101L-153,183L-164,-44Z" fill="rgb(246,250,255)" stroke="rgb(246,250,255)" stroke-width="1.51"></path><path d="M772,1209L1098,1190L904,967Z" fill="rgb(38,93,150)" stroke="rgb(38,93,150)" stroke-width="1.51"></path><path d="M100,1138L449,1345L381,1105Z" fill="rgb(114,130,172)" stroke="rgb(114,130,172)" stroke-width="1.51"></path><path d="M-152,904L-59,1129L185,940Z" fill="rgb(135,142,179)" stroke="rgb(135,142,179)" stroke-width="1.51"></path><path d="M-344,1180L-59,1129L-152,904Z" fill="rgb(135,142,179)" stroke="rgb(135,142,179)" stroke-width="1.51"></path><path d="M-429,294L-434,413L-153,183Z" fill="rgb(210,229,242)" stroke="rgb(210,229,242)" stroke-width="1.51"></path><path d="M772,1209L1017,1429L1098,1190Z" fill="rgb(35,89,148)" stroke="rgb(35,89,148)" stroke-width="1.51"></path><path d="M53,1331L449,1345L100,1138Z" fill="rgb(121,134,175)" stroke="rgb(121,134,175)" stroke-width="1.51"></path><path d="M449,1345L671,1362L653,1153Z" fill="rgb(83,117,163)" stroke="rgb(83,117,163)" stroke-width="1.51"></path><path d="M-338,-232L-360,-101L-164,-44Z" fill="rgb(247,251,255)" stroke="rgb(247,251,255)" stroke-width="1.51"></path><path d="M-434,413L-417,671L-80,495Z" fill="rgb(170,202,229)" stroke="rgb(170,202,229)" stroke-width="1.51"></path><path d="M1098,1190L1257,1120L1101,912Z" fill="rgb(17,73,138)" stroke="rgb(17,73,138)" stroke-width="1.51"></path><path d="M1331,865L1613,668L1309,758Z" fill="rgb(12,70,137)" stroke="rgb(12,70,137)" stroke-width="1.51"></path><path d="M1250,-88L1398,-323L1129,-255Z" fill="rgb(146,161,205)" stroke="rgb(146,161,205)" stroke-width="1.51"></path><path d="M1129,-255L1398,-323L782,-247Z" fill="rgb(153,177,217)" stroke="rgb(153,177,217)" stroke-width="1.51"></path><path d="M519,-293L1398,-323L371,-301Z" fill="rgb(177,208,233)" stroke="rgb(177,208,233)" stroke-width="1.51"></path><path d="M1625,-44L1398,-323L1250,-88Z" fill="rgb(136,144,181)" stroke="rgb(136,144,181)" stroke-width="1.51"></path><path d="M-360,-101L-338,-232L-429,294Z" fill="rgb(247,251,255)" stroke="rgb(247,251,255)" stroke-width="1.51"></path><path d="M-48,-228L-338,-232L-164,-44Z" fill="rgb(247,251,255)" stroke="rgb(247,251,255)" stroke-width="1.51"></path><path d="M371,-301L-338,-232L81,-244Z" fill="rgb(245,249,254)" stroke="rgb(245,249,254)" stroke-width="1.51"></path><path d="M449,1345L758,1414L671,1362Z" fill="rgb(78,114,162)" stroke="rgb(78,114,162)" stroke-width="1.51"></path><path d="M671,1362L758,1414L772,1209Z" fill="rgb(61,107,159)" stroke="rgb(61,107,159)" stroke-width="1.51"></path><path d="M1098,1190L1395,1373L1257,1120Z" fill="rgb(10,65,132)" stroke="rgb(10,65,132)" stroke-width="1.51"></path><path d="M1595,952L1613,668L1331,865Z" fill="rgb(9,58,122)" stroke="rgb(9,58,122)" stroke-width="1.51"></path><path d="M1839,468L1790,259L1502,261Z" fill="rgb(92,121,165)" stroke="rgb(92,121,165)" stroke-width="1.51"></path><path d="M1502,261L1625,-44L1250,-88Z" fill="rgb(130,139,178)" stroke="rgb(130,139,178)" stroke-width="1.51"></path><path d="M-59,1129L53,1331L100,1138Z" fill="rgb(133,141,179)" stroke="rgb(133,141,179)" stroke-width="1.51"></path><path d="M449,1345L-89,1446L758,1414Z" fill="rgb(109,127,171)" stroke="rgb(109,127,171)" stroke-width="1.51"></path><path d="M-89,1446L53,1331L-59,1129Z" fill="rgb(135,142,179)" stroke="rgb(135,142,179)" stroke-width="1.51"></path><path d="M1790,259L1625,-44L1502,261Z" fill="rgb(117,132,174)" stroke="rgb(117,132,174)" stroke-width="1.51"></path><path d="M-417,671L-394,989L-152,904Z" fill="rgb(139,150,189)" stroke="rgb(139,150,189)" stroke-width="1.51"></path><path d="M758,1414L1017,1429L772,1209Z" fill="rgb(48,99,154)" stroke="rgb(48,99,154)" stroke-width="1.51"></path><path d="M1532,1080L1595,952L1331,865Z" fill="rgb(8,48,107)" stroke="rgb(8,48,107)" stroke-width="1.51"></path><path d="M1532,1080L1331,865L1257,1120Z" fill="rgb(9,54,116)" stroke="rgb(9,54,116)" stroke-width="1.51"></path><path d="M1625,-44L1586,-307L1398,-323Z" fill="rgb(135,142,179)" stroke="rgb(135,142,179)" stroke-width="1.51"></path><path d="M1395,1373L1532,1080L1257,1120Z" fill="rgb(9,52,113)" stroke="rgb(9,52,113)" stroke-width="1.51"></path><path d="M1723,848L1613,668L1595,952Z" fill="rgb(9,59,123)" stroke="rgb(9,59,123)" stroke-width="1.51"></path><path d="M1723,848L1733,708L1613,668Z" fill="rgb(15,70,136)" stroke="rgb(15,70,136)" stroke-width="1.51"></path><path d="M1839,468L1502,261L1474,530Z" fill="rgb(71,111,161)" stroke="rgb(71,111,161)" stroke-width="1.51"></path><path d="M1839,468L1474,530L1613,668Z" fill="rgb(42,96,152)" stroke="rgb(42,96,152)" stroke-width="1.51"></path><path d="M1625,-44L1713,-276L1586,-307Z" fill="rgb(135,142,179)" stroke="rgb(135,142,179)" stroke-width="1.51"></path><path d="M-394,989L-344,1180L-152,904Z" fill="rgb(135,142,179)" stroke="rgb(135,142,179)" stroke-width="1.51"></path><path d="M1733,708L1839,468L1613,668Z" fill="rgb(33,88,148)" stroke="rgb(33,88,148)" stroke-width="1.51"></path><path d="M1748,1202L1723,848L1595,952Z" fill="rgb(8,48,107)" stroke="rgb(8,48,107)" stroke-width="1.51"></path><path d="M-311,1356L-89,1446L-59,1129Z" fill="rgb(135,142,179)" stroke="rgb(135,142,179)" stroke-width="1.51"></path><path d="M53,1331L-89,1446L449,1345Z" fill="rgb(125,137,176)" stroke="rgb(125,137,176)" stroke-width="1.51"></path><path d="M758,1414L-89,1446L1017,1429Z" fill="rgb(87,119,164)" stroke="rgb(87,119,164)" stroke-width="1.51"></path><path d="M1723,848L1839,468L1733,708Z" fill="rgb(22,79,143)" stroke="rgb(22,79,143)" stroke-width="1.51"></path><path d="M1873,-101L1625,-44L1790,259Z" fill="rgb(131,140,178)" stroke="rgb(131,140,178)" stroke-width="1.51"></path><path d="M1873,-101L1713,-276L1625,-44Z" fill="rgb(135,142,179)" stroke="rgb(135,142,179)" stroke-width="1.51"></path><path d="M1017,1429L1395,1373L1098,1190Z" fill="rgb(16,72,137)" stroke="rgb(16,72,137)" stroke-width="1.51"></path><path d="M1532,1080L1748,1202L1595,952Z" fill="rgb(8,48,107)" stroke="rgb(8,48,107)" stroke-width="1.51"></path><path d="M-344,1180L-311,1356L-59,1129Z" fill="rgb(135,142,179)" stroke="rgb(135,142,179)" stroke-width="1.51"></path><path d="M-394,989L-311,1356L-344,1180Z" fill="rgb(135,142,179)" stroke="rgb(135,142,179)" stroke-width="1.51"></path><path d="M1839,468L1873,-101L1790,259Z" fill="rgb(112,129,172)" stroke="rgb(112,129,172)" stroke-width="1.51"></path><path d="M1395,1373L1589,1333L1532,1080Z" fill="rgb(8,48,107)" stroke="rgb(8,48,107)" stroke-width="1.51"></path><path d="M1723,848L1748,1202L1839,468Z" fill="rgb(9,56,120)" stroke="rgb(9,56,120)" stroke-width="1.51"></path><path d="M1589,1333L1748,1202L1532,1080Z" fill="rgb(8,48,107)" stroke="rgb(8,48,107)" stroke-width="1.51"></path><path d="M1589,1333L1732,1371L1748,1202Z" fill="rgb(8,48,107)" stroke="rgb(8,48,107)" stroke-width="1.51"></path><path d="M1748,1202L1732,1371L1839,468Z" fill="rgb(8,48,107)" stroke="rgb(8,48,107)" stroke-width="1.51"></path><path d="M1395,1373L1732,1371L1589,1333Z" fill="rgb(8,48,107)" stroke="rgb(8,48,107)" stroke-width="1.51"></path><path d="M1017,1429L1732,1371L1395,1373Z" fill="rgb(9,53,115)" stroke="rgb(9,53,115)" stroke-width="1.51"></path></svg>