<svg xmlns="http://www.w3.org/2000/svg" viewBox="0 0 72.725945 95.999908">
  <defs/>
  <path d="M59.567 18.457909S76.183-1.6490912 72.072.10890884C69.248 1.3079088 52.4 6.7789088 52.4 6.7789088l-1.182-4.965-9.601 6.413-2.469-7.354-4.441 7.354-19.52 47.9670002-5.2399997 13.73c-.098.178-.187.364-.2840003.542l.1830003-.275L0 95.999909l1.2439999-.249L26.34 52.103909c10.219-7.471 27.312-17.046 27.312-17.046l9.698-6.128s-2.859-.906-9.698.204l9.733-10.658zm-12.974-4.601c-1.925 2.363-3.812 4.754-5.642 7.187-3.666 4.86-7.225 9.794-10.571 14.872-3.377 5.057-6.537 10.255-9.577 15.528-1.521 2.636-2.982 5.309-4.396 8.007-1.461 2.677-2.818 5.407-4.215 8.125 1.076-2.861 2.299-5.662 3.533-8.461 1.281-2.776 2.629-5.522 4.031-8.243 2.811-5.438 5.96-10.701 9.333-15.813 3.402-5.092 7.022-10.041 10.93-14.751 1.954-2.355 3.949-4.674 5.999-6.942 2.085-2.237 4.178-4.4650002 6.378-6.5860002-1.942 2.358-3.918 4.6800002-5.803 7.0770002z"/>
</svg>