<svg xmlns="http://www.w3.org/2000/svg" viewBox="0 0 628.75287 375.8302">
  <defs/>
  <path fill="#fa9c0a" d="M276.451389 375.67311c-1.232-.13868-7.424-.8295-13.76-1.53515-11.31381-1.26004-29.847-3.92528-35.52-5.10811-13.21034-2.75438-24.82473-5.43514-32.05516-7.3988-4.72166-1.28231-10.02484-2.69035-11.78484-3.12897-4.50493-1.12271-25.46074-8.24973-34.24-11.64495-14.94798-5.78086-31.44657-13.19142-44.3945-19.94036-15.87382-8.27403-19.84176-10.48219-30.71651-17.09373-6.28258-3.81961-22.02158-14.40687-29.45163-19.8114-17.23522-12.53671-41.780368-33.29638-43.661987-36.92822-1.945645-3.75542-.50185-7.62365 3.191475-8.55061 1.773837-.4452 5.321242.97252 11.396077 4.55445 2.22039 1.30922 5.333075 3.09763 6.917075 3.97426 1.584.87662 5.616 3.11465 8.96 4.9734 9.27843 5.15738 33.55741 16.86332 46.08 22.21716 35.14932 15.02753 71.58447 26.8827 105.6 34.35982 37.95279 8.34259 70.53053 12.99368 103.36 14.75657 26.1808 1.40587 70.11345.4514 89.28-1.93968 2.992-.37326 8.2966-.94492 11.788-1.27036 10.40968-.9703 40.59986-5.9479 53.172-8.76671 3.872-.86815 9.344-2.09577 12.16-2.72805 30.62484-6.87625 69.73105-19.48601 98.05838-31.61885 10.21555-4.37539 13.83799-4.48898 18.17592-.5699 2.2482 2.03111 2.4857 2.54731 2.4857 5.40297 0 5.09027-1.60902 7.26338-9.6 12.96538-7.60721 5.42818-14.99886 10.39727-18.56 12.47711-1.936 1.13069-4.96 2.93795-6.72 4.01613-19.7577 12.1036-51.88135 26.64087-77.44 35.04477-15.2254 5.00624-17.26452 5.6431-19.52 6.09654-1.232.24768-4.544 1.11933-7.36 1.93701-16.92008 4.91305-44.4823 10.52744-61.12 12.45006-3.344.38643-9.536 1.17752-13.76 1.75799-6.26015.86028-14.24678 1.07823-43.2 1.17888-19.536.0679-36.528.01-37.76-.12865zm302.99821-26.75546c-1.0352-1.57987-.90496-4.17703.35424-7.06601 7.13395-16.36717 14.96198-39.4086 17.61197-51.84 2.21414-10.38673 2.36729-11.61412 2.02784-16.24527-.56116-7.65366-3.60154-10.49568-13.56999-12.68455-9.61177-2.11056-37.52003-1.42978-62.57643 1.52645-8.68022 1.02412-8.86423 1.01991-10.56-.24139-2.35068-1.7484-2.44484-3.46286-.32832-5.97819 3.42652-4.07219 15.17645-10.59246 24.7267-13.72135 18.49795-6.06036 30.99034-7.75573 52.91578-7.18131 14.81901.38824 21.36122 1.39733 30.58957 4.71825 4.19942 1.51119 4.84384 1.97677 6.4 4.62388 1.68896 2.87289 1.72992 3.18905 1.70886 13.18348-.0186 8.7545-.27693 11.40055-1.78221 18.24-2.21849 10.0804-3.65894 14.8615-7.61632 25.28-7.19494 18.94207-19.30105 36.84749-31.43737 46.49718-3.80205 3.02302-6.85587 3.3437-8.46432.88883zm-66.19821-154.26988c-18.40105-2.04752-36.85441-7.40099-44.3706-12.87226-4.51801-3.28881-5.1819-5.26464-5.2078-15.49928l-.0216-8.53542 1.79568-1.54458c2.28426-1.96484 3.86867-1.94193 9.22971.13341 2.38404.92289 6.49461 2.51265 9.13461 3.5328 5.74171 2.2187 14.60979 4.5142 23.36 6.04672 9.72178 1.7027 27.61754 1.57646 35.01392-.24699 14.30295-3.52612 22.00655-10.17301 24.18749-20.86964 1.30873-6.41891-.81671-13.84559-5.22364-18.25253-5.73448-5.73451-11.49505-8.28155-36.37774-16.08445-25.00058-7.83987-31.60113-10.71003-39.84483-17.32603-8.18809-6.57138-14.93127-16.84891-17.58231-26.79788-1.543-5.79067-1.53025-19.25025.0237-24.96 4.52787-16.63744 19.20999-30.9685 38.22129-37.30739 10.44887-3.48394 14.0287-3.97261 29.10217-3.97261 8.79317 0 15.76217.31124 18.56.8289 21.30406 3.94176 33.95213 9.35998 36.45574 15.61705 1.24628 3.11479 1.365 16.6843.16672 19.05242-1.27379 2.51719-4.02432 2.92871-8.4862 1.26966-19.86046-7.3847-28.22727-9.11734-43.49626-9.00744-25.15018.18102-37.44 7.98014-37.44 23.75941 0 9.1006 4.23731 15.32172 13.83487 20.31204 7.04437 3.66278 9.60824 4.61197 30.88725 11.43504 10.34116 3.31588 21.11039 7.02918 23.93164 8.25179 14.18758 6.14823 23.34355 14.93054 28.51379 27.34998 2.3609 5.67108 3.30279 11.01294 3.30279 18.73115 0 7.6273-.93376 13.02239-3.2656 18.86769-7.2953 18.28755-22.80237 30.7661-44.64349 35.92462-12.5816 2.97157-25.9593 3.69959-39.76125 2.16382zm-437.12-.38824c-8.67758-.5706-14.75243-2.13866-22.08-5.69935-10.8534-5.27399-17.70331-12.09546-22.80322-22.70854-4.01156-8.34819-5.23368-14.34337-5.28376-25.92-.0362-8.37409.18316-10.76776 1.40786-15.36 5.56886-20.88147 21.84364-35.8933 44.8192-41.34116 10.27954-2.43744 21.44049-3.20587 33.33073-2.29481 9.76463.74817 20.61245 2.32862 30.07379 4.38153 6.76775 1.46845 6.67426 1.66133 6.25569-12.90556-.39808-13.85361-1.51279-19.93448-4.94801-26.99193-4.6639-9.58171-12.38281-14.30932-26.41859-16.18061-16.50854-2.20097-35.06756.56749-55.50142 8.27918-11.18412 4.22085-12.64648 4.4511-15.06199 2.37145l-1.87028-1.61023.0165-8.85393c.0223-11.93003.78111-13.28771 9.81219-17.55502 8.88178-4.19677 21.71092-8.23972 33.6913-10.61742 8.38351-1.66384 37.25421-1.67302 45.12-.0143 23.27046 4.90709 36.38071 14.86787 44.05108 33.46873 1.67222 4.05516 3.70334 12.33615 4.93104 20.10412.25035 1.584.64616 23.472.87957 48.64l.42439 45.76 1.67928 4.80166c.92361 2.64091 3.14524 7.79938 4.93696 11.46326 1.79173 3.66388 3.25768 7.45704 3.25768 8.42924 0 2.70563-2.76874 5.44058-11.04108 10.90635-7.55189 4.98975-10.55427 6.18084-13.63254 5.40824-3.72807-.93568-10.10813-8.65901-15.02217-18.18495-1.15083-2.23091-2.48351-4.20627-2.96151-4.38969-.50532-.19391-3.26511 1.94663-6.59345 5.11397-17.10957 16.28196-36.68681 23.1294-61.46925 21.4998zm30.86326-29.09163c8.50368-2.23504 16.5823-6.3914 21.90794-11.27138 5.30726-4.86315 8.12314-9.09971 10.20591-15.35507 2.60925-7.83658 3.83781-26.13089 1.88592-28.08278-.96752-.96752-12.09291-3.07301-22.30303-4.22086-10.31111-1.15921-24.26631-.85407-31.24132.68311-10.27257 2.2639-18.58567 8.19592-22.2021 15.84287-2.62912 5.55925-3.40237 10.00251-3.04211 17.48065.73708 15.30038 8.34916 24.27356 22.56553 26.60041 5.13782.84093 15.66619.0465 22.22326-1.67695zm147.40342 24.23419c-2.28679-.61243-4.2461-2.27792-5.44544-4.62882-1.56537-3.06837-7.3405-21.59765-22.45368-72.04163-3.90202-13.024-8.48741-28.144-10.18974-33.6-1.70233-5.456-4.9805-16.112-7.28482-23.68-2.30432-7.568-5.38022-17.648-6.83534-22.4-4.39379-14.34886-6.39869-22.41338-5.98343-24.0679.21429-.85379 1.14128-2.1436 2.05997-2.86625 1.58588-1.24745 2.35687-1.30359 15.24295-1.10988 15.28926.22983 15.79429.37615 18.57254 5.38072.76433 1.37682 3.7356 11.71931 6.60282 22.98331 2.86722 11.264 6.04202 23.648 7.05511 27.52 1.80279 6.89021 7.35757 28.76247 17.06642 67.2 2.66733 10.56 5.19759 19.57445 5.6228 20.03212 1.44559 1.55592 1.55606 1.23792 5.73576-16.51212.87031-3.696 3.77022-15.936 6.44424-27.2 5.47705-23.0715 5.6689-23.88469 9.28558-39.36 1.43963-6.16 3.305-14.08 4.14525-17.6.84026-3.52 2.69218-11.44 4.11539-17.6 4.79606-20.75857 5.7514-22.89004 10.90056-24.32048 2.9566-.82134 23.99616-.82134 26.95276 0 3.38203.93953 5.52814 3.59545 7.00376 8.66748 1.1031 3.79158 4.75825 19.07472 11.85603 49.573.86016 3.696 2.41385 10.32 3.45266 14.72 1.0388 4.4 2.48692 10.592 3.21805 13.76.73113 3.168 2.18174 9.36 3.22358 13.76 5.10893 21.57649 6.43905 27.21635 8.30823 35.22776 1.11227 4.76727 2.28009 9.08486 2.59516 9.59465 1.31103 2.12128.71608 4.22731 19.17089-67.86241 4.22949-16.52163 7.17776-27.8081 9.61294-36.8 1.0486-3.872 2.16952-8.192 2.49092-9.6 1.18532-5.19264 5.1292-19.93794 6.16245-23.04 1.53109-4.59675 2.6238-6.03064 5.63884-7.39957 2.3208-1.05372 4.28564-1.21416 15.0192-1.22638 12.26665-.0139 12.35958-.004 13.92 1.55686 2.88671 2.88671 2.59732 4.0968-11.86881 49.62909-3.73751 11.76382-8.38686 26.65156-11.19262 35.84-.80614 2.64-2.06153 6.672-2.78974 8.96-.7282 2.288-5.11098 16.256-9.73949 31.04-4.62851 14.784-10.13296 32.352-12.23211 39.04-4.1405 13.19185-5.03431 15.17124-7.77266 17.2131-1.71289 1.27722-2.56307 1.3469-16.4323 1.3469-13.75424 0-14.7337-.0786-16.43366-1.31789-2.42271-1.76627-4.24479-5.76504-5.93134-13.01698-1.40725-6.05104-6.05333-25.22375-12.57804-51.90513-4.9025-20.04764-7.46938-30.61731-10.41356-42.88-7.8418-32.66152-7.58162-31.79914-9.12756-30.2532-.61408.61408-1.56818 4.23575-5.94675 22.5732-1.30277 5.456-3.20583 13.376-4.22903 17.6-1.02319 4.224-4.89649 20.352-8.60733 35.84-3.71083 15.488-8.21383 34.27935-10.00665 41.75856-3.45248 14.40285-4.89842 18.15704-7.81246 20.28397-1.67542 1.22287-2.77834 1.32487-15.36 1.42052-7.45524.0567-14.11897-.048-14.8083-.2326z"/>
  <path fill="#263240" d="M513.251389 194.64777c-18.40105-2.04752-36.85441-7.40099-44.3706-12.87226-4.51801-3.28881-5.1819-5.26464-5.2078-15.49928l-.0216-8.53542 1.79568-1.54458c2.28426-1.96484 3.86867-1.94193 9.22971.13341 2.38404.92289 6.49461 2.51265 9.13461 3.5328 5.74171 2.2187 14.60979 4.5142 23.36 6.04672 9.72178 1.7027 27.61754 1.57646 35.01392-.24699 14.30295-3.52612 22.00655-10.17301 24.18749-20.86964 1.30873-6.41891-.81671-13.84559-5.22364-18.25253-5.73448-5.73451-11.49505-8.28155-36.37774-16.08445-25.00058-7.83987-31.60113-10.71003-39.84483-17.32603-8.18809-6.57138-14.93127-16.84891-17.58231-26.79788-1.543-5.79067-1.53025-19.25025.0237-24.96 4.52787-16.63744 19.20999-30.9685 38.22129-37.30739 10.44887-3.48394 14.0287-3.97261 29.10217-3.97261 8.79317 0 15.76217.31124 18.56.8289 21.30406 3.94176 33.95213 9.35998 36.45574 15.61705 1.24628 3.11479 1.365 16.6843.16672 19.05242-1.27379 2.51719-4.02432 2.92871-8.4862 1.26966-19.86046-7.3847-28.22727-9.11734-43.49626-9.00744-25.15018.18102-37.44 7.98014-37.44 23.75941 0 9.1006 4.23731 15.32172 13.83487 20.31204 7.04437 3.66278 9.60824 4.61197 30.88725 11.43504 10.34116 3.31588 21.11039 7.02918 23.93164 8.25179 14.18758 6.14823 23.34355 14.93054 28.51379 27.34998 2.3609 5.67108 3.30279 11.01294 3.30279 18.73115 0 7.6273-.93376 13.02239-3.2656 18.86769-7.2953 18.28755-22.80237 30.7661-44.64349 35.92462-12.5816 2.97157-25.9593 3.69959-39.76125 2.16382zm-437.12-.38824c-8.67758-.5706-14.75243-2.13866-22.08-5.69935-10.8534-5.27399-17.70331-12.09546-22.80322-22.70854-4.01156-8.34819-5.23368-14.34337-5.28376-25.92-.0362-8.37409.18316-10.76776 1.40786-15.36 5.56886-20.88147 21.84364-35.8933 44.8192-41.34116 10.27954-2.43744 21.44049-3.20587 33.33073-2.29481 9.76463.74817 20.61245 2.32862 30.07379 4.38153 6.76775 1.46845 6.67426 1.66133 6.25569-12.90556-.39808-13.85361-1.51279-19.93448-4.94801-26.99193-4.6639-9.58171-12.38281-14.30932-26.41859-16.18061-16.50854-2.20097-35.06756.56749-55.50142 8.27918-11.18412 4.22085-12.64648 4.4511-15.06199 2.37145l-1.87028-1.61023.0165-8.85393c.0223-11.93003.78111-13.28771 9.81219-17.55502 8.88178-4.19677 21.71092-8.23972 33.6913-10.61742 8.38351-1.66384 37.25421-1.67302 45.12-.0143 23.27046 4.90709 36.38071 14.86787 44.05108 33.46873 1.67222 4.05516 3.70334 12.33615 4.93104 20.10412.25035 1.584.64616 23.472.87957 48.64l.42439 45.76 1.67928 4.80166c.92361 2.64091 3.14524 7.79938 4.93696 11.46326 1.79173 3.66388 3.25768 7.45704 3.25768 8.42924 0 2.70563-2.76874 5.44058-11.04108 10.90635-7.55189 4.98975-10.55427 6.18084-13.63254 5.40824-3.72807-.93568-10.10813-8.65901-15.02217-18.18495-1.15083-2.23091-2.48351-4.20627-2.96151-4.38969-.50532-.19391-3.26511 1.94663-6.59345 5.11397-17.10957 16.28196-36.68681 23.1294-61.46925 21.4998zm30.86326-29.09163c8.50368-2.23504 16.5823-6.3914 21.90794-11.27138 5.30726-4.86315 8.12314-9.09971 10.20591-15.35507 2.60925-7.83658 3.83781-26.13089 1.88592-28.08278-.96752-.96752-12.09291-3.07301-22.30303-4.22086-10.31111-1.15921-24.26631-.85407-31.24132.68311-10.27257 2.2639-18.58567 8.19592-22.2021 15.84287-2.62912 5.55925-3.40237 10.00251-3.04211 17.48065.73708 15.30038 8.34916 24.27356 22.56553 26.60041 5.13782.84093 15.66619.0465 22.22326-1.67695zm147.40342 24.23419c-2.28679-.61243-4.2461-2.27792-5.44544-4.62882-1.56537-3.06837-7.3405-21.59765-22.45368-72.04163-3.90202-13.024-8.48741-28.144-10.18974-33.6-1.70233-5.456-4.9805-16.112-7.28482-23.68-2.30432-7.568-5.38022-17.648-6.83534-22.4-4.39379-14.34886-6.39869-22.41338-5.98343-24.0679.21429-.85379 1.14128-2.1436 2.05997-2.86625 1.58588-1.24745 2.35687-1.30359 15.24295-1.10988 15.28926.22983 15.79429.37615 18.57254 5.38072.76433 1.37682 3.7356 11.71931 6.60282 22.98331 2.86722 11.264 6.04202 23.648 7.05511 27.52 1.80279 6.89021 7.35757 28.76247 17.06642 67.2 2.66733 10.56 5.19759 19.57445 5.6228 20.03212 1.44559 1.55592 1.55606 1.23792 5.73576-16.51212.87031-3.696 3.77022-15.936 6.44424-27.2 5.47705-23.0715 5.6689-23.88469 9.28558-39.36 1.43963-6.16 3.305-14.08 4.14525-17.6.84026-3.52 2.69218-11.44 4.11539-17.6 4.79606-20.75857 5.7514-22.89004 10.90056-24.32048 2.9566-.82134 23.99616-.82134 26.95276 0 3.38203.93953 5.52814 3.59545 7.00376 8.66748 1.1031 3.79158 4.75825 19.07472 11.85603 49.573.86016 3.696 2.41385 10.32 3.45266 14.72 1.0388 4.4 2.48692 10.592 3.21805 13.76.73113 3.168 2.18174 9.36 3.22358 13.76 5.10893 21.57649 6.43905 27.21635 8.30823 35.22776 1.11227 4.76727 2.28009 9.08486 2.59516 9.59465 1.31103 2.12128.71608 4.22731 19.17089-67.86241 4.22949-16.52163 7.17776-27.8081 9.61294-36.8 1.0486-3.872 2.16952-8.192 2.49092-9.6 1.18532-5.19264 5.1292-19.93794 6.16245-23.04 1.53109-4.59675 2.6238-6.03064 5.63884-7.39957 2.3208-1.05372 4.28564-1.21416 15.0192-1.22638 12.26665-.0139 12.35958-.004 13.92 1.55686 2.88671 2.88671 2.59732 4.0968-11.86881 49.62909-3.73751 11.76382-8.38686 26.65156-11.19262 35.84-.80614 2.64-2.06153 6.672-2.78974 8.96-.7282 2.288-5.11098 16.256-9.73949 31.04-4.62851 14.784-10.13296 32.352-12.23211 39.04-4.1405 13.19185-5.03431 15.17124-7.77266 17.2131-1.71289 1.27722-2.56307 1.3469-16.4323 1.3469-13.75424 0-14.7337-.0786-16.43366-1.31789-2.42271-1.76627-4.24479-5.76504-5.93134-13.01698-1.40725-6.05104-6.05333-25.22375-12.57804-51.90513-4.9025-20.04764-7.46938-30.61731-10.41356-42.88-7.8418-32.66152-7.58162-31.79914-9.12756-30.2532-.61408.61408-1.56818 4.23575-5.94675 22.5732-1.30277 5.456-3.20583 13.376-4.22903 17.6-1.02319 4.224-4.89649 20.352-8.60733 35.84-3.71083 15.488-8.21383 34.27935-10.00665 41.75856-3.45248 14.40285-4.89842 18.15704-7.81246 20.28397-1.67542 1.22287-2.77834 1.32487-15.36 1.42052-7.45524.0567-14.11897-.048-14.8083-.2326z"/>
</svg>